<?xml version="1.0" standalone="no"?><!DOCTYPE svg PUBLIC "-//W3C//DTD SVG 1.1//EN" "http://www.w3.org/Graphics/SVG/1.1/DTD/svg11.dtd"><svg t="1716360441678" class="icon" viewBox="0 0 1024 1024" version="1.1" xmlns="http://www.w3.org/2000/svg" p-id="12532" xmlns:xlink="http://www.w3.org/1999/xlink" width="128" height="128"><path d="M941.7 162.7H80.1c-8.6 0-15.6 7-15.6 15.6v662.6c0 8.6 7 15.6 15.6 15.6h861.7c8.6 0 15.6-7 15.6-15.6V178.3c-0.1-8.6-7.1-15.6-15.7-15.6z m-7.2 22.8v102.6H87.2V185.5h847.3zM87.2 833.7V310.8h847.3v522.9H87.2z" p-id="12533" fill="#000000"></path><path d="M177.8 258.9c13.5 0 24.4-11 24.4-24.4s-11-24.4-24.4-24.4-24.4 11-24.4 24.4 11 24.4 24.4 24.4z m0-37.5c7.2 0 13.1 5.9 13.1 13.1 0 7.2-5.9 13.1-13.1 13.1s-13.1-5.9-13.1-13.1c0.1-7.2 5.9-13.1 13.1-13.1zM276.7 258.9c13.5 0 24.4-11 24.4-24.4s-11-24.4-24.4-24.4-24.4 11-24.4 24.4 10.9 24.4 24.4 24.4z m0-37.5c7.2 0 13.1 5.9 13.1 13.1 0 7.2-5.9 13.1-13.1 13.1-7.2 0-13.1-5.9-13.1-13.1 0-7.2 5.9-13.1 13.1-13.1zM375.5 258.9c13.5 0 24.4-11 24.4-24.4S389 210 375.5 210s-24.4 11-24.4 24.4 10.9 24.5 24.4 24.5z m0-37.5c7.2 0 13.1 5.9 13.1 13.1 0 7.2-5.9 13.1-13.1 13.1-7.2 0-13.1-5.9-13.1-13.1 0.1-7.2 5.9-13.1 13.1-13.1zM779.2 515.3c3.1 0 5.7-2.5 5.7-5.7s-2.5-5.7-5.7-5.7H662v-91.8c0-7.6-6.2-13.8-13.8-13.8H376.4c-7.6 0-13.8 6.2-13.8 13.8v49.1h-115c-3.1 0-5.7 2.5-5.7 5.7 0 3.1 2.5 5.7 5.7 5.7h115v69.7h-115c-3.1 0-5.7 2.5-5.7 5.7 0 3.1 2.5 5.7 5.7 5.7h115v69.7h-115c-3.1 0-5.7 2.5-5.7 5.7 0 3.1 2.5 5.7 5.7 5.7h115V684c0 7.6 6.2 13.8 13.8 13.8h271.8c7.6 0 13.8-6.2 13.8-13.8v-89.7h117.2c3.1 0 5.7-2.5 5.7-5.7s-2.5-5.7-5.7-5.7H662v-67.6h117.2zM639.2 675H385.4V421.2h253.8V675z" p-id="12534" fill="#000000"></path><path d="M512.3 580.2c-9.6 0-17.3 7.7-17.3 17.3 0 9.6 7.7 17.3 17.3 17.3 9.6 0 17.3-7.7 17.3-17.3 0-9.6-7.7-17.3-17.3-17.3zM416.7 527.4c2.1 1.7 4.6 2.5 7.1 2.5 3.3 0 6.6-1.5 8.9-4.2 0.3-0.3 27.2-32.9 79.6-32.9 51.9 0 78.7 31.6 79.8 32.9 4 4.9 11.1 5.6 16 1.7 4.9-4 5.6-11.1 1.7-16-1.4-1.7-34.3-41.4-97.4-41.4-63.1 0-95.9 39.7-97.3 41.4-4.1 4.9-3.3 12 1.6 16z" p-id="12535" fill="#000000"></path><path d="M512.3 524.2c-36.1 0-55.8 30.3-56.6 31.5-3.4 5.3-1.8 12.3 3.5 15.7 5.3 3.4 12.3 1.8 15.7-3.5 0.1-0.2 13.7-21 37.4-21 23.4 0 36.9 20.2 37.4 21 2.2 3.4 5.9 5.3 9.6 5.3 2.1 0 4.2-0.6 6.1-1.8 5.3-3.4 6.9-10.4 3.5-15.7-0.8-1.3-20.5-31.5-56.6-31.5z" p-id="12536" fill="#000000"></path></svg>